<svg width="100" height="100" viewBox="0 0 100 100" fill="none" xmlns="http://www.w3.org/2000/svg">
    <path d="M50 95C50 95 85 80 85 50V20L50 5L15 20V50C15 80 50 95 50 95Z" fill="#2d5f3f" stroke="#2d5f3f" stroke-width="2" stroke-linejoin="round"/>
    <path d="M50 25C50 25 35 40 35 55C35 63.2843 41.7157 70 50 70C58.2843 70 65 63.2843 65 55C65 40 50 25 50 25ZM50 64C48 64 46 60 46 55C46 50 50 35 50 35C50 35 54 50 54 55C54 60 52 64 50 64Z" fill="white"/>
    <path d="M50 70V80" stroke="white" stroke-width="3" stroke-linecap="round"/>
</svg>
